<svg width="545" height="615" viewBox="0 0 545 615" fill="none" xmlns="http://www.w3.org/2000/svg">
<path d="M542.455 312.189C537.028 367.908 516.041 432.691 474.122 462.452C410.787 507.429 416.088 576.604 292.466 606.676C273.192 611.367 254.9 613.342 237.652 612.952C228.381 612.743 219.405 611.837 210.75 610.294C132.18 596.381 79.3066 530.181 59.9087 450.271C34.3812 345.175 85.3537 276.37 119.138 234.915C152.924 193.461 177.669 64.2928 299.008 33.5724C317.508 28.8977 336.428 26.5117 355.342 27.0836C398.513 28.3685 445.602 45.5515 478.185 81.4171C480.63 84.1123 483.009 86.9062 485.329 89.784C530.615 146.129 549.859 236.227 542.455 312.189Z" fill="#FF5A3C" fill-opacity="0.14"/>
<path d="M401.504 73.8716H452.303C452.303 73.8716 457.176 59.2489 448.403 53.8876C439.629 48.5263 439.629 55.8369 432.805 52.9129C427.168 50.4969 426.112 45.9103 424.535 41.0503C424.357 40.4969 424.169 39.9396 423.969 39.3809C423.412 37.8303 422.7 36.3876 421.863 35.0583" stroke="#B3B3B3" stroke-width="1.33333" stroke-miterlimit="10" stroke-linecap="round" stroke-linejoin="round"/>
<path d="M415.898 28.7196C403.17 19.4423 382.114 22.8916 382.113 42.6769C382.113 47.5516 370.416 42.6769 366.029 49.0129C361.642 55.3503 366.517 59.2489 360.668 61.1983C354.818 63.1489 354.33 58.2743 347.02 58.7623C339.708 59.2489 340.684 66.0729 338.246 68.0236C335.809 69.9716 335.809 68.9969 330.448 69.4849C325.086 69.9716 324.11 73.8716 324.11 73.8716H392.504" stroke="#B3B3B3" stroke-width="1.33333" stroke-miterlimit="10" stroke-linecap="round" stroke-linejoin="round"/>
<path d="M428.969 68.5389C428.969 68.5389 431.623 60.3309 425.106 54.2949C418.589 48.2616 411.83 51.6403 409.897 54.2949C407.966 56.9509 407.966 62.0203 404.829 62.5043C401.69 62.9856 402.414 57.1923 395.655 58.6416C388.895 60.0896 391.551 66.8483 388.413 68.2976C385.274 69.7456 385.274 64.4349 380.929 66.1243C376.583 67.8149 376.826 70.9536 376.826 70.9536" stroke="#B3B3B3" stroke-width="1.33333" stroke-miterlimit="10" stroke-linecap="round" stroke-linejoin="round"/>
<path d="M394.296 52.1387C394.296 52.1387 388.921 47.8374 381.933 51.0627C374.944 54.2894 378.169 61.0081 374.944 62.6214C371.718 64.2334 370.105 62.3521 366.074 64.2334C362.044 66.1147 362.312 68.8027 362.312 68.8027" stroke="#B3B3B3" stroke-width="1.33333" stroke-miterlimit="10" stroke-linecap="round" stroke-linejoin="round"/>
<path d="M401.504 73.8716H452.303C452.303 73.8716 457.176 59.2489 448.403 53.8876C439.629 48.5263 439.629 55.8369 432.805 52.9129C427.168 50.4969 426.112 45.9103 424.535 41.0503C424.357 40.4969 424.169 39.9396 423.969 39.3809C423.412 37.8303 422.7 36.3876 421.863 35.0583" stroke="#B3B3B3" stroke-width="1.33333" stroke-miterlimit="10" stroke-linecap="round" stroke-linejoin="round"/>
<path d="M415.898 28.7196C403.17 19.4423 382.114 22.8916 382.113 42.6769C382.113 47.5516 370.416 42.6769 366.029 49.0129C361.642 55.3503 366.517 59.2489 360.668 61.1983C354.818 63.1489 354.33 58.2743 347.02 58.7623C339.708 59.2489 340.684 66.0729 338.246 68.0236C335.809 69.9716 335.809 68.9969 330.448 69.4849C325.086 69.9716 324.11 73.8716 324.11 73.8716H392.504" stroke="#B3B3B3" stroke-width="1.33333" stroke-miterlimit="10" stroke-linecap="round" stroke-linejoin="round"/>
<path d="M428.969 68.5389C428.969 68.5389 431.623 60.3309 425.106 54.2949C418.589 48.2616 411.83 51.6403 409.897 54.2949C407.966 56.9509 407.966 62.0203 404.829 62.5043C401.69 62.9856 402.414 57.1923 395.655 58.6416C388.895 60.0896 391.551 66.8483 388.413 68.2976C385.274 69.7456 385.274 64.4349 380.929 66.1243C376.583 67.8149 376.826 70.9536 376.826 70.9536" stroke="#B3B3B3" stroke-width="1.33333" stroke-miterlimit="10" stroke-linecap="round" stroke-linejoin="round"/>
<path d="M394.296 52.1387C394.296 52.1387 388.921 47.8374 381.933 51.0627C374.944 54.2894 378.169 61.0081 374.944 62.6214C371.718 64.2334 370.105 62.3521 366.074 64.2334C362.044 66.1147 362.312 68.8027 362.312 68.8027" stroke="#B3B3B3" stroke-width="1.33333" stroke-miterlimit="10" stroke-linecap="round" stroke-linejoin="round"/>
<path d="M94.6881 164.431C93.7588 163.957 92.6695 163.478 90.8121 163.601C86.6175 163.881 87.1761 167.797 85.7775 168.915C84.3801 170.034 84.3801 169.475 81.3028 169.755C78.2255 170.034 77.6668 172.271 77.6668 172.271H151.229C151.229 172.271 153.041 166.837 151.124 163.111" stroke="#B3B3B3" stroke-width="1.33333" stroke-miterlimit="10" stroke-linecap="round" stroke-linejoin="round"/>
<path d="M148.992 160.805C143.957 157.728 143.957 161.924 140.041 160.245C136.807 158.86 136.2 156.226 135.296 153.438C135.192 153.12 135.085 152.801 134.971 152.48C130.721 140.664 110.952 139.849 110.952 154.372C110.952 157.168 104.239 154.372 101.721 158.008C99.2041 161.644 102.001 163.882 98.6441 165" stroke="#B3B3B3" stroke-width="1.33333" stroke-miterlimit="10" stroke-linecap="round" stroke-linejoin="round"/>
<path d="M137.84 169.212C137.84 169.212 139.364 164.502 135.623 161.039C131.883 157.575 128.004 159.515 126.896 161.039C125.788 162.563 125.788 165.472 123.987 165.748C122.185 166.026 122.601 162.702 118.723 163.532C114.843 164.363 116.368 168.242 114.567 169.074C112.765 169.906 112.765 166.856 110.272 167.827C107.779 168.796 107.917 170.598 107.917 170.598" stroke="#B3B3B3" stroke-width="1.33333" stroke-miterlimit="10" stroke-linecap="round" stroke-linejoin="round"/>
<path d="M117.943 159.801C117.943 159.801 114.857 157.333 110.848 159.183C106.837 161.034 108.688 164.89 106.837 165.815C104.987 166.742 104.061 165.662 101.748 166.742C99.4333 167.821 99.588 169.363 99.588 169.363" stroke="#B3B3B3" stroke-width="1.33333" stroke-miterlimit="10" stroke-linecap="round" stroke-linejoin="round"/>
<path d="M226.618 36.6966C225.688 36.222 224.599 35.7433 222.743 35.866C218.547 36.146 219.106 40.062 217.707 41.1806C216.31 42.2993 216.31 41.7406 213.232 42.0206C210.155 42.2993 209.596 44.5366 209.596 44.5366H283.159C283.159 44.5366 284.971 39.102 283.054 35.3753" stroke="#B3B3B3" stroke-width="1.33333" stroke-miterlimit="10" stroke-linecap="round" stroke-linejoin="round"/>
<path d="M280.922 33.0691C275.887 29.9918 275.887 34.1878 271.971 32.5105C268.737 31.1238 268.13 28.4918 267.226 25.7025C267.122 25.3851 267.015 25.0651 266.901 24.7451C262.651 12.9278 242.882 12.1131 242.882 26.6358C242.882 29.4331 236.169 26.6358 233.651 30.2718C231.134 33.9078 233.931 36.1465 230.574 37.2651" stroke="#B3B3B3" stroke-width="1.33333" stroke-miterlimit="10" stroke-linecap="round" stroke-linejoin="round"/>
<path d="M269.769 41.4775C269.769 41.4775 271.293 36.7668 267.552 33.3041C263.812 29.8401 259.933 31.7801 258.825 33.3041C257.717 34.8281 257.717 37.7361 255.916 38.0135C254.115 38.2908 254.531 34.9668 250.652 35.7975C246.772 36.6281 248.297 40.5068 246.496 41.3388C244.695 42.1708 244.695 39.1215 242.201 40.0921C239.708 41.0615 239.847 42.8628 239.847 42.8628" stroke="#B3B3B3" stroke-width="1.33333" stroke-miterlimit="10" stroke-linecap="round" stroke-linejoin="round"/>
<path d="M249.872 32.0658C249.872 32.0658 246.788 29.5978 242.778 31.4484C238.767 33.2991 240.618 37.1551 238.767 38.0804C236.916 39.0071 235.991 37.9271 233.678 39.0071C231.363 40.0858 231.518 41.6284 231.518 41.6284" stroke="#B3B3B3" stroke-width="1.33333" stroke-miterlimit="10" stroke-linecap="round" stroke-linejoin="round"/>
<path d="M516.116 594.803H225.733V105.453H516.116V594.803Z" fill="#AFAFAF" stroke="#AFAFAF" stroke-width="1.33333" stroke-miterlimit="10" stroke-linecap="round" stroke-linejoin="round"/>
<path d="M516.116 594.803H348.919V105.453H516.116V594.803Z" fill="white" stroke="#AFAFAF" stroke-width="1.33333" stroke-miterlimit="10" stroke-linecap="round" stroke-linejoin="round"/>
<path d="M496.708 594.803H368.325V105.453H496.708V594.803Z" fill="white" stroke="#AFAFAF" stroke-width="1.33333" stroke-miterlimit="10" stroke-linecap="round" stroke-linejoin="round"/>
<path d="M516.116 138.972H348.919V105.453H516.116V138.972Z" fill="#AFAFAF" stroke="#AFAFAF" stroke-width="1.33333" stroke-miterlimit="10" stroke-linecap="round" stroke-linejoin="round"/>
<path d="M473.132 594.803H391.903V534.661H473.132V594.803Z" fill="white" stroke="#AFAFAF" stroke-width="1.33333" stroke-miterlimit="10" stroke-linecap="round" stroke-linejoin="round"/>
<path d="M473.132 594.803H432.517V534.661H473.132V594.803Z" fill="white" stroke="#AFAFAF" stroke-width="1.33333" stroke-miterlimit="10" stroke-linecap="round" stroke-linejoin="round"/>
<path d="M281.892 193.837H245.029V160.361H281.892V193.837Z" fill="white" stroke="#AFAFAF" stroke-width="1.33333" stroke-miterlimit="10" stroke-linecap="round" stroke-linejoin="round"/>
<path d="M281.892 165.277H245.029V150.717H281.892V165.277Z" fill="white" stroke="#AFAFAF" stroke-width="1.33333" stroke-miterlimit="10" stroke-linecap="round" stroke-linejoin="round"/>
<path d="M334.589 193.837H297.727V160.361H334.589V193.837Z" fill="white" stroke="#AFAFAF" stroke-width="1.33333" stroke-miterlimit="10" stroke-linecap="round" stroke-linejoin="round"/>
<path d="M334.589 165.277H297.727V150.717H334.589V165.277Z" fill="white" stroke="#AFAFAF" stroke-width="1.33333" stroke-miterlimit="10" stroke-linecap="round" stroke-linejoin="round"/>
<path d="M281.892 258.103H245.029V224.628H281.892V258.103Z" fill="white" stroke="#AFAFAF" stroke-width="1.33333" stroke-miterlimit="10" stroke-linecap="round" stroke-linejoin="round"/>
<path d="M281.892 229.542H245.029V214.981H281.892V229.542Z" fill="white" stroke="#AFAFAF" stroke-width="1.33333" stroke-miterlimit="10" stroke-linecap="round" stroke-linejoin="round"/>
<path d="M334.589 258.103H297.727V224.628H334.589V258.103Z" fill="white" stroke="#AFAFAF" stroke-width="1.33333" stroke-miterlimit="10" stroke-linecap="round" stroke-linejoin="round"/>
<path d="M334.589 229.542H297.727V214.981H334.589V229.542Z" fill="white" stroke="#AFAFAF" stroke-width="1.33333" stroke-miterlimit="10" stroke-linecap="round" stroke-linejoin="round"/>
<path d="M281.892 322.367H245.029V288.891H281.892V322.367Z" fill="white" stroke="#AFAFAF" stroke-width="1.33333" stroke-miterlimit="10" stroke-linecap="round" stroke-linejoin="round"/>
<path d="M281.892 293.807H245.029V279.247H281.892V293.807Z" fill="white" stroke="#AFAFAF" stroke-width="1.33333" stroke-miterlimit="10" stroke-linecap="round" stroke-linejoin="round"/>
<path d="M334.589 322.367H297.727V288.891H334.589V322.367Z" fill="white" stroke="#AFAFAF" stroke-width="1.33333" stroke-miterlimit="10" stroke-linecap="round" stroke-linejoin="round"/>
<path d="M334.589 293.807H297.727V279.247H334.589V293.807Z" fill="white" stroke="#AFAFAF" stroke-width="1.33333" stroke-miterlimit="10" stroke-linecap="round" stroke-linejoin="round"/>
<path d="M281.892 386.632H245.029V353.157H281.892V386.632Z" fill="white" stroke="#AFAFAF" stroke-width="1.33333" stroke-miterlimit="10" stroke-linecap="round" stroke-linejoin="round"/>
<path d="M281.892 358.072H245.029V343.512H281.892V358.072Z" fill="white" stroke="#AFAFAF" stroke-width="1.33333" stroke-miterlimit="10" stroke-linecap="round" stroke-linejoin="round"/>
<path d="M334.589 386.632H297.727V353.157H334.589V386.632Z" fill="white" stroke="#AFAFAF" stroke-width="1.33333" stroke-miterlimit="10" stroke-linecap="round" stroke-linejoin="round"/>
<path d="M334.589 358.072H297.727V343.512H334.589V358.072Z" fill="white" stroke="#AFAFAF" stroke-width="1.33333" stroke-miterlimit="10" stroke-linecap="round" stroke-linejoin="round"/>
<path d="M281.892 450.897H245.029V417.423H281.892V450.897Z" fill="white" stroke="#AFAFAF" stroke-width="1.33333" stroke-miterlimit="10" stroke-linecap="round" stroke-linejoin="round"/>
<path d="M281.892 422.337H245.029V407.776H281.892V422.337Z" fill="white" stroke="#AFAFAF" stroke-width="1.33333" stroke-miterlimit="10" stroke-linecap="round" stroke-linejoin="round"/>
<path d="M334.589 450.897H297.727V417.423H334.589V450.897Z" fill="white" stroke="#AFAFAF" stroke-width="1.33333" stroke-miterlimit="10" stroke-linecap="round" stroke-linejoin="round"/>
<path d="M334.589 422.337H297.727V407.776H334.589V422.337Z" fill="white" stroke="#AFAFAF" stroke-width="1.33333" stroke-miterlimit="10" stroke-linecap="round" stroke-linejoin="round"/>
<path d="M281.892 515.161H245.029V481.686H281.892V515.161Z" fill="white" stroke="#AFAFAF" stroke-width="1.33333" stroke-miterlimit="10" stroke-linecap="round" stroke-linejoin="round"/>
<path d="M281.892 486.601H245.029V472.041H281.892V486.601Z" fill="white" stroke="#AFAFAF" stroke-width="1.33333" stroke-miterlimit="10" stroke-linecap="round" stroke-linejoin="round"/>
<path d="M334.589 515.161H297.727V481.686H334.589V515.161Z" fill="white" stroke="#AFAFAF" stroke-width="1.33333" stroke-miterlimit="10" stroke-linecap="round" stroke-linejoin="round"/>
<path d="M334.589 486.601H297.727V472.041H334.589V486.601Z" fill="white" stroke="#AFAFAF" stroke-width="1.33333" stroke-miterlimit="10" stroke-linecap="round" stroke-linejoin="round"/>
<path d="M399.283 193.837H362.42V160.361H399.283V193.837Z" fill="white" stroke="#AFAFAF" stroke-width="1.33333" stroke-miterlimit="10" stroke-linecap="round" stroke-linejoin="round"/>
<path d="M399.283 165.277H362.42V150.717H399.283V165.277Z" fill="white" stroke="#AFAFAF" stroke-width="1.33333" stroke-miterlimit="10" stroke-linecap="round" stroke-linejoin="round"/>
<path d="M451.98 193.837H415.117V160.361H451.98V193.837Z" fill="white" stroke="#AFAFAF" stroke-width="1.33333" stroke-miterlimit="10" stroke-linecap="round" stroke-linejoin="round"/>
<path d="M451.98 165.277H415.117V150.717H451.98V165.277Z" fill="white" stroke="#AFAFAF" stroke-width="1.33333" stroke-miterlimit="10" stroke-linecap="round" stroke-linejoin="round"/>
<path d="M504.677 193.837H467.815V160.361H504.677V193.837Z" fill="white" stroke="#AFAFAF" stroke-width="1.33333" stroke-miterlimit="10" stroke-linecap="round" stroke-linejoin="round"/>
<path d="M504.677 165.277H467.815V150.717H504.677V165.277Z" fill="white" stroke="#AFAFAF" stroke-width="1.33333" stroke-miterlimit="10" stroke-linecap="round" stroke-linejoin="round"/>
<path d="M399.283 258.103H362.42V224.628H399.283V258.103Z" fill="white" stroke="#AFAFAF" stroke-width="1.33333" stroke-miterlimit="10" stroke-linecap="round" stroke-linejoin="round"/>
<path d="M399.283 229.542H362.42V214.981H399.283V229.542Z" fill="white" stroke="#AFAFAF" stroke-width="1.33333" stroke-miterlimit="10" stroke-linecap="round" stroke-linejoin="round"/>
<path d="M451.98 258.103H415.117V224.628H451.98V258.103Z" fill="white" stroke="#AFAFAF" stroke-width="1.33333" stroke-miterlimit="10" stroke-linecap="round" stroke-linejoin="round"/>
<path d="M451.98 229.542H415.117V214.981H451.98V229.542Z" fill="white" stroke="#AFAFAF" stroke-width="1.33333" stroke-miterlimit="10" stroke-linecap="round" stroke-linejoin="round"/>
<path d="M504.677 258.103H467.815V224.628H504.677V258.103Z" fill="white" stroke="#AFAFAF" stroke-width="1.33333" stroke-miterlimit="10" stroke-linecap="round" stroke-linejoin="round"/>
<path d="M504.677 229.542H467.815V214.981H504.677V229.542Z" fill="white" stroke="#AFAFAF" stroke-width="1.33333" stroke-miterlimit="10" stroke-linecap="round" stroke-linejoin="round"/>
<path d="M399.283 322.367H362.42V288.891H399.283V322.367Z" fill="white" stroke="#AFAFAF" stroke-width="1.33333" stroke-miterlimit="10" stroke-linecap="round" stroke-linejoin="round"/>
<path d="M399.283 293.807H362.42V279.247H399.283V293.807Z" fill="white" stroke="#AFAFAF" stroke-width="1.33333" stroke-miterlimit="10" stroke-linecap="round" stroke-linejoin="round"/>
<path d="M451.98 322.367H415.117V288.891H451.98V322.367Z" fill="white" stroke="#AFAFAF" stroke-width="1.33333" stroke-miterlimit="10" stroke-linecap="round" stroke-linejoin="round"/>
<path d="M451.98 293.807H415.117V279.247H451.98V293.807Z" fill="white" stroke="#AFAFAF" stroke-width="1.33333" stroke-miterlimit="10" stroke-linecap="round" stroke-linejoin="round"/>
<path d="M504.677 322.367H467.815V288.891H504.677V322.367Z" fill="white" stroke="#AFAFAF" stroke-width="1.33333" stroke-miterlimit="10" stroke-linecap="round" stroke-linejoin="round"/>
<path d="M504.677 293.807H467.815V279.247H504.677V293.807Z" fill="white" stroke="#AFAFAF" stroke-width="1.33333" stroke-miterlimit="10" stroke-linecap="round" stroke-linejoin="round"/>
<path d="M399.283 386.632H362.42V353.157H399.283V386.632Z" fill="white" stroke="#AFAFAF" stroke-width="1.33333" stroke-miterlimit="10" stroke-linecap="round" stroke-linejoin="round"/>
<path d="M399.283 358.072H362.42V343.512H399.283V358.072Z" fill="white" stroke="#AFAFAF" stroke-width="1.33333" stroke-miterlimit="10" stroke-linecap="round" stroke-linejoin="round"/>
<path d="M451.98 386.632H415.117V353.157H451.98V386.632Z" fill="white" stroke="#AFAFAF" stroke-width="1.33333" stroke-miterlimit="10" stroke-linecap="round" stroke-linejoin="round"/>
<path d="M451.98 358.072H415.117V343.512H451.98V358.072Z" fill="white" stroke="#AFAFAF" stroke-width="1.33333" stroke-miterlimit="10" stroke-linecap="round" stroke-linejoin="round"/>
<path d="M504.677 386.632H467.815V353.157H504.677V386.632Z" fill="white" stroke="#AFAFAF" stroke-width="1.33333" stroke-miterlimit="10" stroke-linecap="round" stroke-linejoin="round"/>
<path d="M504.677 358.072H467.815V343.512H504.677V358.072Z" fill="white" stroke="#AFAFAF" stroke-width="1.33333" stroke-miterlimit="10" stroke-linecap="round" stroke-linejoin="round"/>
<path d="M399.283 450.897H362.42V417.423H399.283V450.897Z" fill="white" stroke="#AFAFAF" stroke-width="1.33333" stroke-miterlimit="10" stroke-linecap="round" stroke-linejoin="round"/>
<path d="M399.283 422.337H362.42V407.776H399.283V422.337Z" fill="white" stroke="#AFAFAF" stroke-width="1.33333" stroke-miterlimit="10" stroke-linecap="round" stroke-linejoin="round"/>
<path d="M451.98 450.897H415.117V417.423H451.98V450.897Z" fill="white" stroke="#AFAFAF" stroke-width="1.33333" stroke-miterlimit="10" stroke-linecap="round" stroke-linejoin="round"/>
<path d="M451.98 422.337H415.117V407.776H451.98V422.337Z" fill="white" stroke="#AFAFAF" stroke-width="1.33333" stroke-miterlimit="10" stroke-linecap="round" stroke-linejoin="round"/>
<path d="M504.677 450.897H467.815V417.423H504.677V450.897Z" fill="white" stroke="#AFAFAF" stroke-width="1.33333" stroke-miterlimit="10" stroke-linecap="round" stroke-linejoin="round"/>
<path d="M504.677 422.337H467.815V407.776H504.677V422.337Z" fill="white" stroke="#AFAFAF" stroke-width="1.33333" stroke-miterlimit="10" stroke-linecap="round" stroke-linejoin="round"/>
<path d="M399.283 515.161H362.42V481.686H399.283V515.161Z" fill="white" stroke="#AFAFAF" stroke-width="1.33333" stroke-miterlimit="10" stroke-linecap="round" stroke-linejoin="round"/>
<path d="M399.283 486.601H362.42V472.041H399.283V486.601Z" fill="white" stroke="#AFAFAF" stroke-width="1.33333" stroke-miterlimit="10" stroke-linecap="round" stroke-linejoin="round"/>
<path d="M451.98 515.161H415.117V481.686H451.98V515.161Z" fill="white" stroke="#AFAFAF" stroke-width="1.33333" stroke-miterlimit="10" stroke-linecap="round" stroke-linejoin="round"/>
<path d="M451.98 486.601H415.117V472.041H451.98V486.601Z" fill="white" stroke="#AFAFAF" stroke-width="1.33333" stroke-miterlimit="10" stroke-linecap="round" stroke-linejoin="round"/>
<path d="M504.677 515.161H467.815V481.686H504.677V515.161Z" fill="white" stroke="#AFAFAF" stroke-width="1.33333" stroke-miterlimit="10" stroke-linecap="round" stroke-linejoin="round"/>
<path d="M504.677 486.601H467.815V472.041H504.677V486.601Z" fill="white" stroke="#AFAFAF" stroke-width="1.33333" stroke-miterlimit="10" stroke-linecap="round" stroke-linejoin="round"/>
<path d="M504.209 552.791H360.607V534.572H504.209V552.791Z" fill="white" stroke="#AFAFAF" stroke-width="1.33333" stroke-miterlimit="10" stroke-linecap="round" stroke-linejoin="round"/>
<path d="M504.209 547.521H360.607V529.303H504.209V547.521Z" fill="white" stroke="#AFAFAF" stroke-width="1.33333" stroke-miterlimit="10" stroke-linecap="round" stroke-linejoin="round"/>
<path d="M303.808 128.5H225.577V80.276H303.808V128.5Z" fill="#AFAFAF" stroke="#AFAFAF" stroke-width="1.33333" stroke-miterlimit="10" stroke-linecap="round" stroke-linejoin="round"/>
<path d="M303.808 128.5H276.739V80.276H303.808V128.5Z" fill="white" stroke="#AFAFAF" stroke-width="1.33333" stroke-miterlimit="10" stroke-linecap="round" stroke-linejoin="round"/>
<path d="M502.067 128.5H469.917V92.0627H502.067V128.5Z" fill="white" stroke="#AFAFAF" stroke-width="1.33333" stroke-miterlimit="10" stroke-linecap="round" stroke-linejoin="round"/>
<path d="M487.207 128.5H455.057V92.0627H487.207V128.5Z" fill="#AFAFAF" stroke="#AFAFAF" stroke-width="1.33333" stroke-miterlimit="10" stroke-linecap="round" stroke-linejoin="round"/>
<path d="M523.189 128.5H218.661V105.453H523.189V128.5Z" fill="white" stroke="#AFAFAF" stroke-width="1.33333" stroke-miterlimit="10" stroke-linecap="round" stroke-linejoin="round"/>
<path d="M523.189 128.5H341.083V105.453H523.189V128.5Z" fill="white" stroke="#AFAFAF" stroke-width="1.33333" stroke-miterlimit="10" stroke-linecap="round" stroke-linejoin="round"/>
<path d="M348.918 105.453V115.132" stroke="#AFAFAF" stroke-width="1.33333" stroke-miterlimit="10" stroke-linecap="round" stroke-linejoin="round"/>
<path d="M353.9 105.453V115.132" stroke="#AFAFAF" stroke-width="1.33333" stroke-miterlimit="10" stroke-linecap="round" stroke-linejoin="round"/>
<path d="M353.9 117.743V125.135" stroke="#AFAFAF" stroke-width="1.33333" stroke-miterlimit="10" stroke-linecap="round" stroke-linejoin="round"/>
<path d="M358.883 105.453V115.132" stroke="#AFAFAF" stroke-width="1.33333" stroke-miterlimit="10" stroke-linecap="round" stroke-linejoin="round"/>
<path d="M358.883 118.159V125.011" stroke="#AFAFAF" stroke-width="1.33333" stroke-miterlimit="10" stroke-linecap="round" stroke-linejoin="round"/>
<path d="M363.533 118.159V122.478" stroke="#AFAFAF" stroke-width="1.33333" stroke-miterlimit="10" stroke-linecap="round" stroke-linejoin="round"/>
<path d="M363.865 105.453V115.132" stroke="#AFAFAF" stroke-width="1.33333" stroke-miterlimit="10" stroke-linecap="round" stroke-linejoin="round"/>
<path d="M369.512 112.677V115.132" stroke="#AFAFAF" stroke-width="1.33333" stroke-miterlimit="10" stroke-linecap="round" stroke-linejoin="round"/>
<path d="M369.844 105.453V110.956" stroke="#AFAFAF" stroke-width="1.33333" stroke-miterlimit="10" stroke-linecap="round" stroke-linejoin="round"/>
<path d="M348.918 117.078V122.81" stroke="#AFAFAF" stroke-width="1.33333" stroke-miterlimit="10" stroke-linecap="round" stroke-linejoin="round"/>
<path d="M74.2435 213.007C78.6206 215.149 89.3248 214.878 89.333 214.878C89.4439 214.876 87.0321 207.024 86.8289 206.549C84.4807 201.041 77.0534 191.948 71.0096 192.863C66.6561 193.524 64.2351 198.407 65.2172 203.001C66.222 207.695 70.517 211.18 74.2435 213.007Z" fill="#1A2E35"/>
<path d="M77.9382 247.76C82.4785 248.502 92.0313 245.398 92.7907 245.147C94.2994 251.14 96.2801 257.154 98.5851 263.116C99.8978 266.526 101.317 269.915 102.777 273.292C101.906 271.862 101.116 270.59 100.99 270.424C97.4254 265.808 88.1201 259.237 82.5083 261.909C78.4627 263.834 77.2793 269.26 79.3093 273.401C81.3814 277.63 86.3487 279.722 90.3728 280.378C94.4564 281.046 102.648 278.581 104.81 277.897C105.381 279.186 105.94 280.48 106.517 281.767C109.283 287.942 112.067 294.089 114.633 300.213C115.538 302.37 116.359 304.532 117.188 306.692C116.413 305.422 115.751 304.36 115.634 304.208C112.072 299.594 102.766 293.021 97.1524 295.694C93.1078 297.618 91.9235 303.045 93.9545 307.185C96.0287 311.414 100.993 313.507 105.018 314.163C108.916 314.801 116.495 312.601 119.065 311.802C119.854 314.043 120.647 316.285 121.322 318.497C121.752 320.017 122.261 321.448 122.615 323.004C122.997 324.535 123.373 326.051 123.747 327.552C124.373 330.472 125.034 333.482 125.579 336.348C125.972 338.339 126.315 340.243 126.664 342.161C125.785 340.001 123.985 335.814 123.799 335.483C120.902 330.315 112.592 322.242 106.682 323.927C102.423 325.144 100.52 330.307 101.969 334.745C103.446 339.276 108.07 342.187 111.959 343.52C116.242 344.987 125.723 343.646 126.908 343.47C127.476 346.645 128.002 349.74 128.455 352.67C128.797 354.837 129.107 356.921 129.392 358.923H133.19C132.831 356.695 132.44 354.364 132.007 351.925C131.442 348.699 130.781 345.263 130.071 341.741C130.784 341.424 134.828 339.591 138.411 337.346C141.532 341.134 149.53 345.57 150.566 346.133C149.478 349.134 148.393 352.039 147.33 354.763C146.77 356.208 146.227 357.569 145.685 358.923H149.7C150.019 358.067 150.335 357.23 150.659 356.339C151.776 353.299 152.916 350.023 154.056 346.649C155.205 346.918 164.59 349.054 168.964 347.948C172.932 346.942 177.737 344.426 179.513 340.03C181.252 335.726 179.696 330.419 175.529 328.851C169.749 326.673 160.925 334.033 157.692 338.944C157.5 339.234 155.744 342.636 154.669 344.804C155.129 343.423 155.588 342.087 156.046 340.657C156.97 337.838 157.817 334.995 158.736 331.939C159.135 330.446 159.538 328.939 159.944 327.416C160.375 325.915 160.661 324.268 161.03 322.68C161.817 318.981 162.452 315.188 163.018 311.353C165.221 312.252 173.09 315.319 177.166 314.999C181.223 314.679 186.313 313.008 188.662 308.965C190.962 305.006 190.142 299.494 186.237 297.236C180.816 294.104 171.099 299.88 167.24 304.185C166.999 304.453 164.539 307.892 163.221 309.809C163.544 307.502 163.877 305.199 164.136 302.851C164.888 296.073 165.458 289.187 166.057 282.319C166.238 280.216 166.441 278.122 166.64 276.025C167.421 276.355 176.701 280.229 181.267 279.868C185.324 279.551 190.415 277.88 192.763 273.835C195.064 269.877 194.243 264.365 190.339 262.108C184.918 258.975 175.201 264.751 171.342 269.056C171.052 269.38 167.518 274.334 166.674 275.643C167.11 271.025 167.582 266.429 168.211 261.919C169.071 255.693 170.223 249.639 171.727 243.866C172.089 244.021 181.761 248.111 186.437 247.744C190.494 247.424 195.584 245.753 197.933 241.71C200.233 237.751 199.413 232.24 195.508 229.982C190.087 226.85 180.371 232.625 176.51 236.93C176.209 237.268 172.409 242.6 171.782 243.623C171.873 243.28 171.932 242.913 172.026 242.571C173.7 236.432 176.01 230.719 178.406 225.49C179.794 222.448 181.271 219.627 182.763 216.919C184.495 217.889 192.452 222.218 196.691 222.409C200.757 222.591 205.979 221.557 208.709 217.826C211.385 214.175 211.109 208.596 207.449 205.872C202.368 202.09 192.145 206.636 187.886 210.44C187.655 210.646 185.509 213.042 183.967 214.811C184.657 213.6 185.35 212.337 186.031 211.192C188.583 206.886 191.156 203.118 193.459 199.803C194.782 197.93 196.01 196.265 197.176 194.721C199.317 194.678 207.946 194.385 211.719 192.399C215.4 190.461 219.611 186.847 220.501 182.126C221.373 177.501 218.835 172.693 214.467 172.167C208.403 171.433 201.198 180.748 198.982 186.325C198.791 186.808 196.569 194.729 196.681 194.728C196.681 194.728 196.786 194.727 196.81 194.725C195.662 196.186 194.448 197.767 193.151 199.525C190.779 202.79 188.126 206.505 185.482 210.766C182.829 215.016 180.054 219.718 177.53 224.965C174.993 230.221 172.564 235.897 170.735 242.105C170.715 242.175 170.702 242.251 170.681 242.323C170.713 240.32 170.634 234.718 170.584 234.289C169.884 228.236 165.358 217 159.359 215.757C155.039 214.863 151.381 218.656 151.036 223.365C150.685 228.176 153.796 232.988 156.83 236.026C160.251 239.45 169.747 242.768 170.504 243.03C168.81 248.961 167.504 255.202 166.492 261.599C165.909 265.256 165.424 268.96 164.98 272.68C164.957 270.948 164.927 269.399 164.9 269.183C164.2 263.129 159.674 251.895 153.676 250.652C149.356 249.756 145.697 253.551 145.353 258.259C145.001 263.069 148.113 267.883 151.147 270.92C154.225 274.002 162.27 277.012 164.407 277.777C164.251 279.206 164.08 280.632 163.928 282.061C163.196 288.922 162.493 295.77 161.619 302.464C161.313 304.824 160.933 307.134 160.561 309.447C160.539 307.91 160.51 306.614 160.487 306.418C159.786 300.364 155.261 289.129 149.264 287.885C144.944 286.991 141.284 290.784 140.939 295.495C140.587 300.302 143.7 305.117 146.734 308.154C149.67 311.095 157.075 313.949 159.612 314.871C159.167 317.228 158.725 319.588 158.198 321.85C157.808 323.384 157.527 324.891 157.059 326.41C156.623 327.92 156.193 329.42 155.765 330.903C154.849 333.725 153.92 336.643 152.964 339.372C152.313 341.274 151.66 343.076 151.008 344.89C151.338 342.546 151.897 337.941 151.905 337.551C151.988 333.497 150.704 326.903 148.147 322.27C148.162 321.67 148.132 321.075 148.047 320.481C147.379 315.816 143.469 312.352 139.222 313.619C133.329 315.377 129.591 326.973 129.313 333.068C129.296 333.427 129.506 337.351 129.676 339.825C129.378 338.388 129.105 336.989 128.784 335.515C128.165 332.593 127.471 329.697 126.736 326.579C126.335 325.087 125.928 323.582 125.516 322.059C125.138 320.542 124.566 318.99 124.093 317.44C122.927 313.868 121.59 310.31 120.174 306.762C122.456 306.149 130.527 303.843 133.768 301.054C136.996 298.28 140.418 293.738 140.388 288.914C140.357 284.188 136.962 280.099 132.593 280.631C126.531 281.369 121.268 292.194 120.168 298.173C120.1 298.546 119.74 302.934 119.584 305.35C118.718 303.225 117.862 301.098 116.923 298.978C114.215 292.861 111.302 286.764 108.419 280.667C107.535 278.8 106.675 276.928 105.807 275.058C106.622 274.848 116.27 272.34 119.9 269.218C123.127 266.443 126.55 261.901 126.519 257.077C126.489 252.352 123.093 248.263 118.725 248.795C112.662 249.533 107.4 260.359 106.3 266.336C106.217 266.787 105.709 273.103 105.649 274.716C103.739 270.597 101.87 266.471 100.175 262.319C97.8298 256.595 95.8111 250.833 94.2224 245.089C94.6021 244.993 104.681 242.424 108.401 239.227C111.628 236.451 115.051 231.911 115.019 227.085C114.989 222.36 111.593 218.272 107.224 218.804C101.162 219.542 95.9004 230.367 94.8002 236.346C94.714 236.815 94.17 243.611 94.1495 244.849C94.0561 244.508 93.9248 244.166 93.8344 243.825C92.2098 237.666 91.3241 231.474 90.7494 225.63C90.4087 222.237 90.2537 218.971 90.1655 215.789C92.0867 215.527 100.855 214.218 104.484 211.755C107.965 209.392 111.812 205.3 112.254 200.501C112.686 195.802 109.711 191.319 105.319 191.31C99.2194 191.297 92.9293 201.41 91.2492 207.216C91.1579 207.532 90.5462 210.857 90.1316 213.286C90.1121 211.849 90.0669 210.366 90.0721 208.991C90.0813 203.822 90.3728 199.087 90.6612 194.899C90.8428 192.518 91.0491 190.369 91.2605 188.362C93.0257 187.001 100.078 181.421 102.248 177.432C104.365 173.54 106.097 167.921 104.516 163.434C102.968 159.039 98.4846 156.598 94.5826 158.858C89.1638 161.996 87.7393 174.221 88.6342 180.242C88.7133 180.761 90.7597 188.743 90.852 188.673C90.852 188.673 90.9383 188.608 90.9588 188.591C90.7197 190.519 90.4846 192.59 90.2681 194.857C89.8966 199.047 89.5117 203.785 89.4039 208.975C89.2839 214.16 89.2828 219.798 89.7601 225.736C90.2322 231.688 90.9988 237.924 92.5311 244.232C92.5475 244.304 92.5742 244.376 92.5916 244.447C91.6331 242.756 88.8087 238.134 88.5552 237.807C84.9929 233.19 75.6876 226.62 70.0737 229.291C66.0302 231.216 64.8448 236.642 66.8758 240.784C68.951 245.012 73.9141 247.102 77.9382 247.76Z" fill="#1A2E35"/>
<path d="M182.516 215.646C182.611 215.712 184.463 207.67 184.529 207.149C185.279 201.104 183.56 188.927 178.068 185.953C174.113 183.811 169.69 186.388 168.249 190.828C166.776 195.362 168.642 200.927 170.853 204.753C173.448 209.247 182.51 215.64 182.516 215.646Z" fill="#1A2E35"/>
<path d="M318.904 501.142C322.052 502.516 329.753 502.343 329.76 502.343C329.838 502.34 328.104 497.302 327.958 496.996C326.268 493.46 320.925 487.624 316.577 488.212C313.444 488.635 311.702 491.771 312.409 494.72C313.132 497.731 316.221 499.97 318.904 501.142Z" fill="#1A2E35"/>
<path d="M321.561 523.449C324.827 523.925 331.7 521.932 332.248 521.77C333.332 525.618 334.757 529.478 336.416 533.306C337.361 535.494 338.381 537.669 339.43 539.837C338.805 538.92 338.237 538.102 338.145 537.997C335.582 535.033 328.887 530.816 324.849 532.532C321.939 533.766 321.088 537.25 322.548 539.908C324.039 542.622 327.612 543.965 330.507 544.386C333.445 544.814 339.338 543.233 340.893 542.793C341.306 543.621 341.706 544.452 342.122 545.277C344.113 549.241 346.116 553.186 347.962 557.117C348.613 558.502 349.202 559.889 349.8 561.276C349.242 560.461 348.765 559.78 348.682 559.682C346.118 556.72 339.424 552.501 335.385 554.217C332.476 555.452 331.624 558.936 333.085 561.593C334.577 564.308 338.148 565.649 341.044 566.072C343.848 566.48 349.301 565.07 351.149 564.556C351.717 565.994 352.289 567.433 352.773 568.853C353.084 569.829 353.449 570.749 353.704 571.746C353.978 572.729 354.25 573.701 354.52 574.666C354.969 576.54 355.444 578.473 355.837 580.312C356.12 581.589 356.366 582.812 356.617 584.042C355.985 582.657 354.69 579.97 354.556 579.756C352.473 576.44 346.493 571.256 342.241 572.34C339.177 573.121 337.808 576.434 338.851 579.282C339.913 582.192 343.24 584.06 346.037 584.916C349.12 585.857 355.941 584.997 356.793 584.884C357.201 586.921 357.58 588.908 357.907 590.789C358.152 592.18 358.374 593.517 358.581 594.802H361.312C361.054 593.37 360.773 591.876 360.463 590.31C360.055 588.24 359.58 586.033 359.069 583.774C359.582 583.57 362.49 582.393 365.069 580.953C367.314 583.385 373.069 586.23 373.813 586.592C373.032 588.518 372.252 590.384 371.485 592.133C371.084 593.06 370.692 593.933 370.302 594.802H373.192C373.421 594.253 373.646 593.714 373.881 593.144C374.685 591.193 375.505 589.089 376.325 586.924C377.15 587.096 383.904 588.468 387.05 587.757C389.905 587.112 393.364 585.497 394.641 582.676C395.892 579.913 394.772 576.506 391.774 575.5C387.616 574.101 381.266 578.825 378.941 581.978C378.804 582.164 377.54 584.349 376.765 585.74C377.096 584.853 377.426 583.996 377.756 583.078C378.422 581.269 379.03 579.444 379.693 577.482C379.978 576.525 380.268 575.556 380.561 574.58C380.87 573.614 381.078 572.558 381.342 571.538C381.909 569.164 382.366 566.73 382.772 564.268C384.358 564.845 390.02 566.814 392.952 566.608C395.87 566.402 399.533 565.33 401.222 562.736C402.877 560.194 402.287 556.656 399.479 555.206C395.579 553.197 388.588 556.904 385.81 559.668C385.637 559.84 383.866 562.046 382.92 563.277C383.15 561.796 383.39 560.317 383.578 558.81C384.118 554.461 384.529 550.04 384.958 545.632C385.089 544.281 385.237 542.937 385.378 541.592C385.94 541.804 392.617 544.29 395.902 544.058C398.821 543.854 402.482 542.781 404.173 540.186C405.828 537.644 405.238 534.106 402.428 532.658C398.53 530.646 391.538 534.356 388.761 537.118C388.552 537.326 386.01 540.506 385.404 541.346C385.716 538.382 386.056 535.432 386.509 532.536C387.128 528.541 387.957 524.654 389.037 520.949C389.3 521.049 396.257 523.674 399.621 523.438C402.54 523.233 406.202 522.161 407.893 519.565C409.548 517.025 408.958 513.486 406.148 512.037C402.248 510.026 395.257 513.734 392.48 516.497C392.262 516.714 389.53 520.137 389.078 520.793C389.144 520.573 389.186 520.337 389.254 520.118C390.458 516.177 392.12 512.51 393.844 509.153C394.842 507.201 395.905 505.39 396.978 503.652C398.225 504.274 403.949 507.054 407 507.177C409.924 507.293 413.682 506.63 415.645 504.236C417.57 501.89 417.372 498.31 414.74 496.561C411.084 494.134 403.729 497.052 400.664 499.493C400.499 499.626 398.954 501.164 397.845 502.3C398.341 501.522 398.84 500.71 399.331 499.977C401.165 497.212 403.017 494.794 404.673 492.665C405.625 491.464 406.509 490.394 407.348 489.404C408.888 489.376 415.096 489.189 417.812 487.914C420.46 486.669 423.489 484.35 424.13 481.318C424.756 478.352 422.93 475.264 419.788 474.926C415.425 474.457 410.242 480.434 408.648 484.014C408.51 484.324 406.912 489.409 406.992 489.409C406.992 489.409 407.068 489.408 407.086 489.408C406.258 490.345 405.385 491.36 404.452 492.486C402.746 494.585 400.837 496.968 398.934 499.702C397.026 502.43 395.03 505.449 393.213 508.817C391.388 512.192 389.641 515.834 388.325 519.82C388.312 519.865 388.301 519.914 388.286 519.958C388.309 518.673 388.253 515.077 388.216 514.802C387.712 510.917 384.456 503.704 380.141 502.906C377.033 502.333 374.4 504.768 374.152 507.79C373.9 510.877 376.138 513.968 378.32 515.917C380.782 518.116 387.614 520.245 388.158 520.413C386.94 524.22 386.001 528.226 385.272 532.332C384.853 534.68 384.504 537.057 384.185 539.445C384.168 538.332 384.145 537.338 384.128 537.2C383.624 533.313 380.366 526.102 376.052 525.305C372.944 524.73 370.312 527.166 370.064 530.189C369.81 533.276 372.049 536.366 374.232 538.314C376.446 540.293 382.234 542.225 383.772 542.716C383.66 543.634 383.536 544.548 383.426 545.466C382.901 549.869 382.396 554.265 381.766 558.562C381.546 560.077 381.273 561.56 381.005 563.045C380.989 562.058 380.969 561.226 380.952 561.1C380.448 557.213 377.192 550.002 372.877 549.204C369.768 548.632 367.136 551.065 366.888 554.089C366.636 557.174 368.873 560.265 371.057 562.214C373.169 564.102 378.497 565.934 380.321 566.526C380.002 568.038 379.684 569.554 379.306 571.006C379.025 571.99 378.822 572.958 378.485 573.932C378.172 574.902 377.862 575.865 377.554 576.816C376.896 578.629 376.226 580.501 375.54 582.253C375.072 583.476 374.601 584.63 374.133 585.796C374.368 584.29 374.772 581.334 374.777 581.084C374.837 578.481 373.914 574.25 372.074 571.276C372.085 570.892 372.062 570.508 372.002 570.128C371.521 567.133 368.708 564.909 365.652 565.722C361.413 566.852 358.724 574.294 358.524 578.205C358.512 578.437 358.662 580.956 358.784 582.542C358.57 581.621 358.373 580.724 358.142 579.777C357.698 577.902 357.198 576.042 356.67 574.041C356.38 573.085 356.088 572.117 355.792 571.141C355.52 570.166 355.108 569.17 354.766 568.174C353.928 565.882 352.968 563.598 351.948 561.321C353.589 560.928 359.397 559.448 361.729 557.657C364.05 555.876 366.513 552.961 366.49 549.865C366.47 546.832 364.026 544.206 360.884 544.548C356.522 545.022 352.736 551.972 351.944 555.809C351.894 556.048 351.637 558.865 351.524 560.416C350.901 559.05 350.285 557.685 349.609 556.325C347.66 552.398 345.565 548.484 343.49 544.572C342.856 543.372 342.237 542.172 341.612 540.972C342.198 540.837 349.14 539.226 351.752 537.222C354.073 535.441 356.534 532.526 356.513 529.429C356.49 526.397 354.048 523.77 350.906 524.113C346.542 524.588 342.757 531.534 341.967 535.372C341.907 535.662 341.54 539.716 341.497 540.752C340.124 538.106 338.78 535.458 337.56 532.794C335.872 529.12 334.42 525.421 333.277 521.734C333.55 521.673 340.802 520.024 343.477 517.972C345.8 516.19 348.261 513.276 348.24 510.178C348.218 507.145 345.775 504.521 342.632 504.862C338.269 505.336 334.484 512.285 333.693 516.122C333.63 516.422 333.24 520.786 333.225 521.581C333.157 521.362 333.062 521.142 332.997 520.922C331.829 516.97 331.192 512.996 330.778 509.245C330.533 507.066 330.423 504.97 330.359 502.926C331.741 502.758 338.049 501.92 340.66 500.337C343.164 498.821 345.932 496.196 346.25 493.114C346.561 490.097 344.421 487.22 341.26 487.214C336.872 487.205 332.347 493.698 331.139 497.424C331.072 497.628 330.632 499.761 330.334 501.32C330.32 500.398 330.288 499.446 330.292 498.564C330.299 495.246 330.506 492.206 330.714 489.518C330.845 487.989 330.993 486.61 331.146 485.322C332.416 484.449 337.491 480.866 339.05 478.308C340.574 475.809 341.82 472.201 340.684 469.321C339.569 466.5 336.344 464.933 333.536 466.384C329.638 468.398 328.613 476.246 329.256 480.11C329.313 480.444 330.785 485.566 330.853 485.522C330.853 485.522 330.915 485.48 330.928 485.47C330.756 486.706 330.588 488.036 330.432 489.49C330.164 492.181 329.888 495.222 329.811 498.553C329.724 501.881 329.723 505.501 330.067 509.312C330.407 513.133 330.957 517.136 332.06 521.185C332.072 521.23 332.091 521.277 332.104 521.322C331.415 520.238 329.381 517.27 329.2 517.06C326.637 514.096 319.941 509.878 315.904 511.593C312.993 512.829 312.141 516.312 313.603 518.972C315.095 521.685 318.667 523.028 321.561 523.449Z" fill="#1A2E35"/>
<path d="M396.801 502.836C396.87 502.877 398.202 497.716 398.249 497.381C398.789 493.501 397.551 485.685 393.601 483.776C390.755 482.401 387.573 484.056 386.537 486.906C385.477 489.816 386.819 493.388 388.41 495.844C390.277 498.729 396.797 502.832 396.801 502.836Z" fill="#1A2E35"/>
<path d="M336.696 573.518H133.538C126.614 573.518 121 567.906 121 560.98V289.485C121 282.56 126.614 276.948 133.538 276.948H336.696C343.62 276.948 349.234 282.56 349.234 289.485V560.98C349.234 567.906 343.621 573.518 336.696 573.518Z" fill="#1A2E35"/>
<path d="M338.313 559.443H131.92V294.48H338.313V559.443Z" fill="white" stroke="#1A2E35" stroke-width="1.33333" stroke-miterlimit="10" stroke-linecap="round" stroke-linejoin="round"/>
<path d="M193.205 334.164H277.029" stroke="#1A2E35" stroke-width="1.33333" stroke-miterlimit="10" stroke-linecap="round" stroke-linejoin="round"/>
<path d="M287.964 370.272H317.007" stroke="#1A2E35" stroke-width="1.33333" stroke-miterlimit="10" stroke-linecap="round" stroke-linejoin="round"/>
<path d="M204.399 370.272H281.048" stroke="#1A2E35" stroke-width="1.33333" stroke-miterlimit="10" stroke-linecap="round" stroke-linejoin="round"/>
<path d="M168.668 370.272H199.212" stroke="#1A2E35" stroke-width="1.33333" stroke-miterlimit="10" stroke-linecap="round" stroke-linejoin="round"/>
<path d="M153.228 370.272H161.176" stroke="#1A2E35" stroke-width="1.33333" stroke-miterlimit="10" stroke-linecap="round" stroke-linejoin="round"/>
<path d="M288.54 398.644H317.006" stroke="#1A2E35" stroke-width="1.33333" stroke-miterlimit="10" stroke-linecap="round" stroke-linejoin="round"/>
<path d="M241.283 398.644H282.777" stroke="#1A2E35" stroke-width="1.33333" stroke-miterlimit="10" stroke-linecap="round" stroke-linejoin="round"/>
<path d="M170.397 398.644H234.944" stroke="#1A2E35" stroke-width="1.33333" stroke-miterlimit="10" stroke-linecap="round" stroke-linejoin="round"/>
<path d="M153.228 398.644H162.905" stroke="#1A2E35" stroke-width="1.33333" stroke-miterlimit="10" stroke-linecap="round" stroke-linejoin="round"/>
<path d="M272.403 427.014H317.006" stroke="#1A2E35" stroke-width="1.33333" stroke-miterlimit="10" stroke-linecap="round" stroke-linejoin="round"/>
<path d="M176.736 427.014H264.335" stroke="#1A2E35" stroke-width="1.33333" stroke-miterlimit="10" stroke-linecap="round" stroke-linejoin="round"/>
<path d="M153.228 427.014H169.821" stroke="#1A2E35" stroke-width="1.33333" stroke-miterlimit="10" stroke-linecap="round" stroke-linejoin="round"/>
<path d="M306.406 455.385H317.006" stroke="#1A2E35" stroke-width="1.33333" stroke-miterlimit="10" stroke-linecap="round" stroke-linejoin="round"/>
<path d="M183.652 455.385H295.456" stroke="#1A2E35" stroke-width="1.33333" stroke-miterlimit="10" stroke-linecap="round" stroke-linejoin="round"/>
<path d="M153.228 455.385H175.583" stroke="#1A2E35" stroke-width="1.33333" stroke-miterlimit="10" stroke-linecap="round" stroke-linejoin="round"/>
<path d="M304.677 483.757H317.006" stroke="#1A2E35" stroke-width="1.33333" stroke-miterlimit="10" stroke-linecap="round" stroke-linejoin="round"/>
<path d="M208.433 483.757H295.456" stroke="#1A2E35" stroke-width="1.33333" stroke-miterlimit="10" stroke-linecap="round" stroke-linejoin="round"/>
<path d="M153.228 483.757H200.941" stroke="#1A2E35" stroke-width="1.33333" stroke-miterlimit="10" stroke-linecap="round" stroke-linejoin="round"/>
<path d="M261.454 512.128H317.006" stroke="#1A2E35" stroke-width="1.33333" stroke-miterlimit="10" stroke-linecap="round" stroke-linejoin="round"/>
<path d="M153.228 512.128H250.504" stroke="#1A2E35" stroke-width="1.33333" stroke-miterlimit="10" stroke-linecap="round" stroke-linejoin="round"/>
<path d="M241.157 259.716C237.378 259.716 234.314 256.652 234.314 252.873C234.314 249.093 237.378 246.03 241.157 246.03C244.937 246.03 248 249.093 248 252.873C248 256.652 244.937 259.716 241.157 259.716ZM262.299 270.958C257.818 270.958 255.357 266.039 257.739 262.243C260.188 258.342 261.294 253.511 260.405 248.392C259.07 240.711 253.01 234.38 245.379 232.785C232.737 230.141 221.605 239.719 221.605 251.896C221.605 255.83 222.769 259.489 224.772 262.551C227.135 266.164 224.337 270.958 220.018 270.958H186.021L195.21 297.354H287.105L296.294 270.958H262.299Z" fill="white"/>
<path d="M241.157 259.716C237.378 259.716 234.314 256.652 234.314 252.873C234.314 249.093 237.378 246.03 241.157 246.03C244.937 246.03 248 249.093 248 252.873C248 256.652 244.937 259.716 241.157 259.716ZM262.299 270.958C257.818 270.958 255.357 266.039 257.739 262.243C260.188 258.342 261.294 253.511 260.405 248.392C259.07 240.711 253.01 234.38 245.379 232.785C232.737 230.141 221.605 239.719 221.605 251.896C221.605 255.83 222.769 259.489 224.772 262.551C227.135 266.164 224.337 270.958 220.018 270.958H186.021L195.21 297.354H287.105L296.294 270.958H262.299Z" stroke="#1A2E35" stroke-width="1.33333" stroke-miterlimit="10" stroke-linecap="round" stroke-linejoin="round"/>
<path d="M196.68 520.036C196.68 506.986 186.102 496.408 173.051 496.408C160.002 496.408 149.423 506.986 149.423 520.036C149.423 533.087 160.002 543.665 173.051 543.665C186.102 543.665 196.68 533.087 196.68 520.036Z" fill="#1A2E35"/>
<path d="M196.68 520.036C196.68 506.986 186.102 496.408 173.051 496.408C160.002 496.408 149.423 506.986 149.423 520.036C149.423 533.087 160.002 543.665 173.051 543.665C186.102 543.665 196.68 533.087 196.68 520.036Z" stroke="#1A2E35" stroke-width="1.33333" stroke-miterlimit="10" stroke-linecap="round" stroke-linejoin="round"/>
<path d="M174.738 529.953C173.192 529.935 171.746 529.26 170.752 528.101L160.378 515.999C158.474 513.775 158.732 510.418 160.954 508.516C161.914 507.691 163.141 507.238 164.405 507.238C165.958 507.238 167.427 507.913 168.436 509.09L174.873 516.6L196.19 492.862C197.196 491.743 198.635 491.101 200.14 491.101C201.45 491.101 202.708 491.583 203.684 492.459C205.862 494.415 206.043 497.777 204.087 499.954L178.73 528.192C177.725 529.311 176.286 529.953 174.781 529.953H174.738Z" fill="#FF5A3C"/>
<path d="M200.14 489.506C198.183 489.506 196.31 490.341 195.003 491.795L174.902 514.181L169.648 508.052C168.334 506.52 166.423 505.642 164.406 505.642C162.76 505.642 161.166 506.233 159.916 507.303C157.026 509.78 156.689 514.146 159.166 517.036L169.54 529.139C170.833 530.646 172.714 531.525 174.7 531.548H174.719H174.781C176.737 531.548 178.609 530.713 179.916 529.258L205.274 501.019C207.817 498.188 207.582 493.815 204.75 491.272C203.481 490.133 201.844 489.506 200.14 489.506ZM200.14 492.696C201.023 492.696 201.909 493.01 202.618 493.646C204.143 495.016 204.269 497.363 202.9 498.888L177.542 527.126C176.838 527.91 175.834 528.358 174.781 528.358H174.738C173.669 528.346 172.658 527.873 171.962 527.062L161.589 514.961C160.255 513.403 160.435 511.06 161.991 509.727C162.692 509.126 163.55 508.833 164.406 508.833C165.452 508.833 166.491 509.273 167.225 510.129L174.846 519.019L197.377 493.927C198.11 493.112 199.122 492.696 200.14 492.696Z" fill="#1A2E35"/>
<path d="M242 246L242 104" stroke="#1A2E35" stroke-width="1.33333" stroke-miterlimit="10" stroke-linecap="round" stroke-linejoin="round"/>
<path d="M472.559 343.241L456.052 388.803L454.999 388.529L445.62 381.767L442.161 385.179L445.785 402.995C445.785 402.995 460.412 410.541 463.084 410.054C465.756 409.567 468.915 408.353 468.915 408.353C468.915 408.353 478.147 344.941 478.391 343.726C478.633 342.511 477.176 339.109 472.559 343.241Z" fill="white"/>
<path d="M472.559 343.241L456.052 388.803L454.999 388.529L445.62 381.767L442.161 385.179L445.785 402.995C445.785 402.995 460.412 410.541 463.084 410.054C465.756 409.567 468.915 408.353 468.915 408.353C468.915 408.353 478.147 344.941 478.391 343.726C478.633 342.511 477.176 339.109 472.559 343.241Z" stroke="#1A2E35" stroke-width="1.33333" stroke-miterlimit="10" stroke-linecap="round" stroke-linejoin="round"/>
<path d="M477.013 581.304C477.013 581.304 472.405 588.328 468.642 591.291C464.878 594.254 456.058 598.52 453.597 600.507C451.136 602.495 452.224 604.266 453.076 605.119C453.926 605.972 465.276 606.598 471.458 606.608C477.641 606.618 488.817 603.98 488.817 603.98C488.817 603.98 493.749 604.77 494.996 604.147C496.244 603.523 497.041 602.118 497.236 599.931C497.43 597.744 496.724 585.399 496.724 585.399L477.013 581.304Z" fill="white"/>
<path d="M477.013 581.304C477.013 581.304 472.405 588.328 468.642 591.291C464.878 594.254 456.058 598.52 453.597 600.507C451.136 602.495 452.224 604.266 453.076 605.119C453.926 605.972 465.276 606.598 471.458 606.608C477.641 606.618 488.817 603.98 488.817 603.98C488.817 603.98 493.749 604.77 494.996 604.147C496.244 603.523 497.041 602.118 497.236 599.931C497.43 597.744 496.724 585.399 496.724 585.399L477.013 581.304Z" stroke="#1A2E35" stroke-width="1.33333" stroke-miterlimit="10" stroke-linecap="round" stroke-linejoin="round"/>
<path d="M490.267 600.702C485.462 601.475 484.515 602.567 475.215 603.958C467.558 605.104 456.216 603.694 452.088 602.96C452.055 603.884 452.6 604.644 453.075 605.119C453.926 605.972 465.276 606.598 471.459 606.608C477.64 606.618 488.816 603.98 488.816 603.98C488.816 603.98 493.748 604.77 494.996 604.147C496.234 603.528 497.027 602.14 497.23 599.984C495.652 600.058 493.13 600.24 490.267 600.702Z" fill="#1A2E35"/>
<path d="M490.267 600.702C485.462 601.475 484.515 602.567 475.215 603.958C467.558 605.104 456.216 603.694 452.088 602.96C452.055 603.884 452.6 604.644 453.075 605.119C453.926 605.972 465.276 606.598 471.459 606.608C477.64 606.618 488.816 603.98 488.816 603.98C488.816 603.98 493.748 604.77 494.996 604.147C496.234 603.528 497.027 602.14 497.23 599.984C495.652 600.058 493.13 600.24 490.267 600.702Z" stroke="#1A2E35" stroke-width="1.33333" stroke-miterlimit="10" stroke-linecap="round" stroke-linejoin="round"/>
<path d="M481.021 586.5C481.021 586.5 475.687 584.118 472.098 588.116" stroke="#1A2E35" stroke-width="2.66667" stroke-miterlimit="10" stroke-linecap="round" stroke-linejoin="round"/>
<path d="M474.945 584.484C474.945 584.484 479.049 587.69 478.501 591.103" stroke="#1A2E35" stroke-width="2.66667" stroke-miterlimit="10" stroke-linecap="round" stroke-linejoin="round"/>
<path d="M477.042 590.198C477.042 590.198 472.847 588.251 469.988 591.586" stroke="#1A2E35" stroke-width="2.66667" stroke-miterlimit="10" stroke-linecap="round" stroke-linejoin="round"/>
<path d="M472.258 588.558C472.258 588.558 475.478 591.195 475.026 594.029" stroke="#1A2E35" stroke-width="2.66667" stroke-miterlimit="10" stroke-linecap="round" stroke-linejoin="round"/>
<path d="M473.956 593.964C473.956 593.964 470.074 592.132 463.972 594.287" stroke="#1A2E35" stroke-width="2.66667" stroke-miterlimit="10" stroke-linecap="round" stroke-linejoin="round"/>
<path d="M469.099 592.299C469.099 592.299 471.231 594.541 468.554 596.566" stroke="#1A2E35" stroke-width="2.66667" stroke-miterlimit="10" stroke-linecap="round" stroke-linejoin="round"/>
<path d="M507.431 588C507.431 588 505.151 596.158 504.327 597.294C503.504 598.429 498.076 605.245 498.032 607.682C497.99 610.12 499.726 611.909 504.047 612.892C508.368 613.873 515.114 614.209 520.46 611.781C525.808 609.353 528.234 608.544 529.586 604.809C530.939 601.074 530.039 588.562 530.039 588.562C530.039 588.562 513.312 576.272 507.431 588Z" fill="white"/>
<path d="M507.431 588C507.431 588 505.151 596.158 504.327 597.294C503.504 598.429 498.076 605.245 498.032 607.682C497.99 610.12 499.726 611.909 504.047 612.892C508.368 613.873 515.114 614.209 520.46 611.781C525.808 609.353 528.234 608.544 529.586 604.809C530.939 601.074 530.039 588.562 530.039 588.562C530.039 588.562 513.312 576.272 507.431 588Z" stroke="#1A2E35" stroke-width="1.33333" stroke-miterlimit="10" stroke-linecap="round" stroke-linejoin="round"/>
<path d="M529.586 604.81C530.058 603.51 530.255 601.147 530.313 598.618C529.387 600.055 528.018 602.038 526.554 603.667C523.93 606.587 519.371 609.83 510.679 610.464C504.297 610.932 500.062 608.164 498.259 606.659C498.122 607.048 498.038 607.396 498.034 607.682C497.99 610.119 499.725 611.908 504.047 612.892C508.369 613.874 515.114 614.21 520.461 611.782C525.809 609.352 528.233 608.544 529.586 604.81Z" fill="#1A2E35"/>
<path d="M529.586 604.81C530.058 603.51 530.255 601.147 530.313 598.618C529.387 600.055 528.018 602.038 526.554 603.667C523.93 606.587 519.371 609.83 510.679 610.464C504.297 610.932 500.062 608.164 498.259 606.659C498.122 607.048 498.038 607.396 498.034 607.682C497.99 610.119 499.725 611.908 504.047 612.892C508.369 613.874 515.114 614.21 520.461 611.782C525.809 609.352 528.233 608.544 529.586 604.81Z" stroke="#1A2E35" stroke-width="1.33333" stroke-miterlimit="10" stroke-linecap="round" stroke-linejoin="round"/>
<path d="M519.204 585.229C519.204 585.229 511.887 584.872 509.595 589.173" stroke="#1A2E35" stroke-width="2.66667" stroke-miterlimit="10" stroke-linecap="round" stroke-linejoin="round"/>
<path d="M511.197 585.388C511.197 585.388 517.474 586.776 518.443 589.704" stroke="#1A2E35" stroke-width="2.66667" stroke-miterlimit="10" stroke-linecap="round" stroke-linejoin="round"/>
<path d="M517.746 590.564C517.746 590.564 510.429 590.208 508.137 594.509" stroke="#1A2E35" stroke-width="2.66667" stroke-miterlimit="10" stroke-linecap="round" stroke-linejoin="round"/>
<path d="M509.737 590.723C509.737 590.723 516.014 592.111 516.985 595.04" stroke="#1A2E35" stroke-width="2.66667" stroke-miterlimit="10" stroke-linecap="round" stroke-linejoin="round"/>
<path d="M516.288 595.9C516.288 595.9 508.97 595.542 506.678 599.844" stroke="#1A2E35" stroke-width="2.66667" stroke-miterlimit="10" stroke-linecap="round" stroke-linejoin="round"/>
<path d="M508.279 596.059C508.279 596.059 514.556 597.447 515.527 600.375" stroke="#1A2E35" stroke-width="2.66667" stroke-miterlimit="10" stroke-linecap="round" stroke-linejoin="round"/>
<path d="M463.673 427.815C463.673 427.815 466.485 470.231 467.701 482.135C468.916 494.04 471.829 521.495 472.073 522.224C472.315 522.953 473.044 532.672 473.044 532.672C473.044 532.672 472.315 536.559 473.288 545.063C474.259 553.565 477.175 571.301 477.175 571.301C477.175 571.301 474.745 571.787 474.987 573.732C475.231 575.676 476.201 581.02 476.201 581.02C476.201 581.02 485.435 584.179 488.107 584.421C490.78 584.665 496.125 584.421 496.125 584.421C496.125 584.421 498.312 580.777 498.069 578.835C497.825 576.891 496.125 571.787 496.125 571.787L497.34 557.453L499.285 498.9C499.285 498.9 506.815 555.996 508.031 560.125C509.245 564.256 510.46 570.816 510.46 570.816C510.46 570.816 508.031 572.76 508.031 573.975C508.031 575.189 508.516 583.693 508.516 583.693C508.516 583.693 513.375 579.805 517.991 580.535C522.607 581.264 530.141 586.609 530.141 586.609C530.141 586.609 530.627 582.479 531.597 579.32C532.571 576.161 530.625 568.144 530.14 565.957C529.653 563.771 529.411 560.613 529.896 558.425C530.383 556.239 530.625 549.436 530.868 547.249C531.112 545.064 530.627 490.64 530.627 490.64L535.591 428.303L464.888 426.115L463.673 427.815Z" fill="#1A2E35"/>
<path d="M463.673 427.815C463.673 427.815 466.485 470.231 467.701 482.135C468.916 494.04 471.829 521.495 472.073 522.224C472.315 522.953 473.044 532.672 473.044 532.672C473.044 532.672 472.315 536.559 473.288 545.063C474.259 553.565 477.175 571.301 477.175 571.301C477.175 571.301 474.745 571.787 474.987 573.732C475.231 575.676 476.201 581.02 476.201 581.02C476.201 581.02 485.435 584.179 488.107 584.421C490.78 584.665 496.125 584.421 496.125 584.421C496.125 584.421 498.312 580.777 498.069 578.835C497.825 576.891 496.125 571.787 496.125 571.787L497.34 557.453L499.285 498.9C499.285 498.9 506.815 555.996 508.031 560.125C509.245 564.256 510.46 570.816 510.46 570.816C510.46 570.816 508.031 572.76 508.031 573.975C508.031 575.189 508.516 583.693 508.516 583.693C508.516 583.693 513.375 579.805 517.991 580.535C522.607 581.264 530.141 586.609 530.141 586.609C530.141 586.609 530.627 582.479 531.597 579.32C532.571 576.161 530.625 568.144 530.14 565.957C529.653 563.771 529.411 560.613 529.896 558.425C530.383 556.239 530.625 549.436 530.868 547.249C531.112 545.064 530.627 490.64 530.627 490.64L535.591 428.303L464.888 426.115L463.673 427.815Z" stroke="#1A2E35" stroke-width="1.33333" stroke-miterlimit="10" stroke-linecap="round" stroke-linejoin="round"/>
<path d="M489.577 323.256C489.577 323.256 474.561 330.139 473.518 332.642C472.475 335.144 467.47 384.78 464.55 404.592C461.63 424.404 462.882 429.728 462.882 429.728C462.882 429.728 466.009 436.194 496.666 435.151C527.325 434.108 538.169 429.519 538.586 426.808C539.002 424.098 539.421 427.534 539.421 425.656C539.421 423.78 541.715 335.144 539.421 329.722C537.126 324.299 524.197 315.332 520.442 314.914C516.689 314.498 489.577 323.256 489.577 323.256Z" fill="#FF5A3C"/>
<path d="M489.577 323.256C489.577 323.256 474.561 330.139 473.518 332.642C472.475 335.144 467.47 384.78 464.55 404.592C461.63 424.404 462.882 429.728 462.882 429.728C462.882 429.728 466.009 436.194 496.666 435.151C527.325 434.108 538.169 429.519 538.586 426.808C539.002 424.098 539.421 427.534 539.421 425.656C539.421 423.78 541.715 335.144 539.421 329.722C537.126 324.299 524.197 315.332 520.442 314.914C516.689 314.498 489.577 323.256 489.577 323.256Z" stroke="#1A2E35" stroke-width="1.33333" stroke-miterlimit="10" stroke-linecap="round" stroke-linejoin="round"/>
<path d="M514.358 319.199C505.189 321.448 489.577 326.492 489.577 326.492C489.577 326.492 474.561 333.374 473.518 335.876C473.359 336.259 473.107 337.743 472.785 340.05C479.403 336.264 495.037 327.472 500.298 325.811C507.043 323.68 513.433 323.148 513.433 323.148L530.829 334.686L538.106 334.863C538.106 334.863 521.774 320.486 517.161 319.243C516.602 319.092 515.627 319.091 514.358 319.199Z" fill="white"/>
<path d="M514.358 319.199C505.189 321.448 489.577 326.492 489.577 326.492C489.577 326.492 474.561 333.374 473.518 335.876C473.359 336.259 473.107 337.743 472.785 340.05C479.403 336.264 495.037 327.472 500.298 325.811C507.043 323.68 513.433 323.148 513.433 323.148L530.829 334.686L538.106 334.863C538.106 334.863 521.774 320.486 517.161 319.243C516.602 319.092 515.627 319.091 514.358 319.199Z" stroke="#1A2E35" stroke-width="1.33333" stroke-miterlimit="10" stroke-linecap="round" stroke-linejoin="round"/>
<path d="M464.585 407.59C464.573 407.669 464.561 407.75 464.551 407.829C464.043 411.274 463.687 414.391 463.435 417.222C470.834 418.729 489.889 422.018 510.238 420.773C526.205 419.794 535.117 419.217 539.637 418.914C539.695 416.186 539.763 413.007 539.833 409.507C529.171 410.602 487.439 414.282 464.585 407.59Z" fill="white"/>
<path d="M464.585 407.59C464.573 407.669 464.561 407.75 464.551 407.829C464.043 411.274 463.687 414.391 463.435 417.222C470.834 418.729 489.889 422.018 510.238 420.773C526.205 419.794 535.117 419.217 539.637 418.914C539.695 416.186 539.763 413.007 539.833 409.507C529.171 410.602 487.439 414.282 464.585 407.59Z" stroke="#1A2E35" stroke-width="1.33333" stroke-miterlimit="10" stroke-linecap="round" stroke-linejoin="round"/>
<path d="M475.552 424.212C475.657 426.103 475.812 427.947 476.02 429.728" stroke="#1A2E35" stroke-width="1.33333" stroke-miterlimit="10"/>
<path d="M480.108 380.235C477.947 392.827 475.105 405.346 475.399 420.058" stroke="#1A2E35" stroke-width="1.33333" stroke-miterlimit="10"/>
<path d="M483.945 364.24C483.945 364.24 482.387 370.75 480.649 380.388" stroke="#1A2E35" stroke-width="1.33333" stroke-miterlimit="10"/>
<path d="M437.04 435.475C437.04 435.475 440.111 440.919 445.564 434.873C448.498 431.619 459.52 397.958 459.52 397.958C459.52 397.958 437.96 431.941 437.04 435.475Z" fill="white"/>
<path d="M437.04 435.475C437.04 435.475 440.111 440.919 445.564 434.873C448.498 431.619 459.52 397.958 459.52 397.958C459.52 397.958 437.96 431.941 437.04 435.475Z" stroke="#1A2E35" stroke-width="1.33333" stroke-miterlimit="10" stroke-linecap="round" stroke-linejoin="round"/>
<path d="M416.456 333.705L430.753 328.761C430.753 328.761 430.605 359.401 432.673 366.721L434.742 374.04C434.742 374.04 420.854 350.867 417.876 343.127C414.898 335.388 416.456 333.705 416.456 333.705Z" fill="white"/>
<path d="M416.456 333.705L430.753 328.761C430.753 328.761 430.605 359.401 432.673 366.721L434.742 374.04C434.742 374.04 420.854 350.867 417.876 343.127C414.898 335.388 416.456 333.705 416.456 333.705Z" stroke="#1A2E35" stroke-width="1.33333" stroke-miterlimit="10" stroke-linecap="round" stroke-linejoin="round"/>
<path d="M445.947 378.169C445.947 378.169 443.415 371.177 439.079 372.609C434.743 374.04 431.556 373.917 431.229 375.88C430.903 377.842 442.161 385.18 442.161 385.18C442.161 385.18 450.197 384.709 445.947 378.169Z" fill="white"/>
<path d="M445.947 378.169C445.947 378.169 443.415 371.177 439.079 372.609C434.743 374.04 431.556 373.917 431.229 375.88C430.903 377.842 442.161 385.18 442.161 385.18C442.161 385.18 450.197 384.709 445.947 378.169Z" stroke="#1A2E35" stroke-width="1.33333" stroke-miterlimit="10" stroke-linecap="round" stroke-linejoin="round"/>
<path d="M451.303 411.233C451.303 411.233 437.222 434.521 437.041 435.476C437.041 435.476 427.387 419.138 414.387 399.101C401.386 379.064 389.134 331.717 389.134 331.717C389.134 331.717 393.895 326.193 403.034 324.966C412.17 323.738 415.319 324.092 415.319 324.092C415.319 324.092 424.037 354.936 433.697 369.142C443.357 383.349 455.569 394.349 455.569 394.349L459.521 397.958L451.303 411.233Z" fill="white"/>
<path d="M451.303 411.233C451.303 411.233 437.222 434.521 437.041 435.476C437.041 435.476 427.387 419.138 414.387 399.101C401.386 379.064 389.134 331.717 389.134 331.717C389.134 331.717 393.895 326.193 403.034 324.966C412.17 323.738 415.319 324.092 415.319 324.092C415.319 324.092 424.037 354.936 433.697 369.142C443.357 383.349 455.569 394.349 455.569 394.349L459.521 397.958L451.303 411.233Z" stroke="#1A2E35" stroke-width="1.33333" stroke-miterlimit="10" stroke-linecap="round" stroke-linejoin="round"/>
<path d="M414.112 372.992C421.204 375.533 431.735 379.104 439.617 380.905" stroke="#1A2E35" stroke-width="1.33333" stroke-miterlimit="10"/>
<path d="M406.306 370.108C406.306 370.108 407.429 370.541 409.315 371.243" stroke="#1A2E35" stroke-width="1.33333" stroke-miterlimit="10"/>
<path d="M420.24 367.074C420.24 367.074 429.378 376.234 438.925 378.053" stroke="#1A2E35" stroke-width="1.33333" stroke-miterlimit="10"/>
<path d="M466.825 390.585C466.825 390.585 455.147 385.163 453.269 384.954C451.393 384.745 441.799 388.499 440.756 389.334C439.713 390.169 439.297 392.045 440.548 392.253C441.799 392.462 443.884 391.001 443.884 391.001L449.307 389.959L451.809 391.419C451.809 391.419 443.051 396.633 442.216 398.301C441.381 399.97 439.921 403.098 440.756 403.723C441.591 404.349 442.008 405.809 443.259 405.809C444.511 405.809 445.229 405.685 445.229 405.685C445.229 405.685 447.637 405.391 449.516 403.723C451.393 402.055 455.564 402.681 455.564 402.681C455.564 402.681 460.569 404.349 461.82 403.933C463.072 403.515 466.199 401.638 466.199 401.638H468.493L466.825 390.585Z" fill="white"/>
<path d="M466.825 390.585C466.825 390.585 455.147 385.163 453.269 384.954C451.393 384.745 441.799 388.499 440.756 389.334C439.713 390.169 439.297 392.045 440.548 392.253C441.799 392.462 443.884 391.001 443.884 391.001L449.307 389.959L451.809 391.419C451.809 391.419 443.051 396.633 442.216 398.301C441.381 399.97 439.921 403.098 440.756 403.723C441.591 404.349 442.008 405.809 443.259 405.809C444.511 405.809 445.229 405.685 445.229 405.685C445.229 405.685 447.637 405.391 449.516 403.723C451.393 402.055 455.564 402.681 455.564 402.681C455.564 402.681 460.569 404.349 461.82 403.933C463.072 403.515 466.199 401.638 466.199 401.638H468.493L466.825 390.585Z" stroke="#1A2E35" stroke-width="1.33333" stroke-miterlimit="10" stroke-linecap="round" stroke-linejoin="round"/>
<path d="M440.757 403.724C440.757 403.724 445.229 399.061 445.739 398.466C446.249 397.872 453.807 394.05 453.807 394.05" stroke="#1A2E35" stroke-width="1.33333" stroke-miterlimit="10"/>
<path d="M443.259 405.809C443.259 405.809 449.306 400.505 449.731 400.166C450.155 399.826 455.251 397.787 455.251 397.787" stroke="#1A2E35" stroke-width="1.33333" stroke-miterlimit="10"/>
<path d="M536.293 333.165C536.293 333.165 528.158 330.454 522.529 339.213C516.897 347.972 513.538 390.148 513.538 390.148L466.825 390.584L467.66 403.516C467.66 403.516 511.869 408.293 520.42 408.293C528.97 408.293 531.265 409.752 532.308 406.624C533.35 403.496 542.549 365.49 543.801 353.396C545.052 341.3 540.256 334 536.293 333.165Z" fill="white"/>
<path d="M536.293 333.165C536.293 333.165 528.158 330.454 522.529 339.213C516.897 347.972 513.538 390.148 513.538 390.148L466.825 390.584L467.66 403.516C467.66 403.516 511.869 408.293 520.42 408.293C528.97 408.293 531.265 409.752 532.308 406.624C533.35 403.496 542.549 365.49 543.801 353.396C545.052 341.3 540.256 334 536.293 333.165Z" stroke="#1A2E35" stroke-width="1.33333" stroke-miterlimit="10" stroke-linecap="round" stroke-linejoin="round"/>
<path d="M467.316 428.545C467.316 428.545 454.44 426.601 453.711 428.06C452.982 429.517 453.711 449.44 454.926 450.655C456.14 451.869 464.4 453.571 466.831 452.112C469.26 450.655 470.718 449.683 471.203 448.467C471.69 447.252 471.69 431.947 470.718 430.003C469.746 428.06 467.316 428.545 467.316 428.545Z" fill="#1A2E35"/>
<path d="M467.316 428.545C467.316 428.545 454.44 426.601 453.711 428.06C452.982 429.517 453.711 449.44 454.926 450.655C456.14 451.869 464.4 453.571 466.831 452.112C469.26 450.655 470.718 449.683 471.203 448.467C471.69 447.252 471.69 431.947 470.718 430.003C469.746 428.06 467.316 428.545 467.316 428.545Z" stroke="#1A2E35" stroke-width="1.33333" stroke-miterlimit="10" stroke-linecap="round" stroke-linejoin="round"/>
<path d="M482.622 430.975C482.622 430.975 480.68 450.655 483.837 451.87C486.996 453.084 493.556 453.57 494.77 453.327C495.985 453.084 500.36 452.355 501.088 450.411C501.817 448.467 501.817 433.162 501.33 431.704C500.845 430.246 483.837 429.031 482.622 430.975Z" fill="#1A2E35"/>
<path d="M482.622 430.975C482.622 430.975 480.68 450.655 483.837 451.87C486.996 453.084 493.556 453.57 494.77 453.327C495.985 453.084 500.36 452.355 501.088 450.411C501.817 448.467 501.817 433.162 501.33 431.704C500.845 430.246 483.837 429.031 482.622 430.975Z" stroke="#1A2E35" stroke-width="1.33333" stroke-miterlimit="10" stroke-linecap="round" stroke-linejoin="round"/>
<path d="M513.236 433.161C513.236 433.161 514.208 455.27 514.694 456.242C515.18 457.214 524.412 463.289 526.112 463.045C527.814 462.801 541.42 461.345 542.149 458.672C542.876 456 544.577 434.376 543.12 431.946C541.661 429.517 538.504 428.545 535.589 428.301C532.672 428.06 515.665 430.489 515.665 430.489C515.665 430.489 513.48 430.489 513.236 433.161Z" fill="#1A2E35"/>
<path d="M513.236 433.161C513.236 433.161 514.208 455.27 514.694 456.242C515.18 457.214 524.412 463.289 526.112 463.045C527.814 462.801 541.42 461.345 542.149 458.672C542.876 456 544.577 434.376 543.12 431.946C541.661 429.517 538.504 428.545 535.589 428.301C532.672 428.06 515.665 430.489 515.665 430.489C515.665 430.489 513.48 430.489 513.236 433.161Z" stroke="#1A2E35" stroke-width="1.33333" stroke-miterlimit="10" stroke-linecap="round" stroke-linejoin="round"/>
<path d="M495.833 317.733L485.823 323.154L489.368 329.62L484.363 360.904C484.363 360.904 513.977 322.32 514.395 321.696C514.811 321.069 520.443 318.149 520.443 318.149L518.565 310.433L515.437 311.266L495.833 317.733Z" fill="#1A2E35"/>
<path d="M495.833 317.733L485.823 323.154L489.368 329.62L484.363 360.904C484.363 360.904 513.977 322.32 514.395 321.696C514.811 321.069 520.443 318.149 520.443 318.149L518.565 310.433L515.437 311.266L495.833 317.733Z" stroke="#1A2E35" stroke-width="1.33333" stroke-miterlimit="10" stroke-linecap="round" stroke-linejoin="round"/>
<path d="M485.266 274.659C485.266 274.659 483.466 280.208 483.466 280.958C483.466 281.708 483.916 283.958 483.916 283.958C483.916 283.958 478.367 291.756 478.667 292.207C478.967 292.656 482.267 296.106 482.267 296.106C482.267 296.106 482.567 307.803 484.067 307.954C485.567 308.103 495.315 308.103 495.315 308.103L494.414 325.2L516.76 312.303L517.211 297.306C517.211 297.306 523.21 289.656 523.21 285.758C523.21 281.858 522.61 281.108 522.61 281.108L485.266 274.659Z" fill="white"/>
<path d="M485.266 274.659C485.266 274.659 483.466 280.208 483.466 280.958C483.466 281.708 483.916 283.958 483.916 283.958C483.916 283.958 478.367 291.756 478.667 292.207C478.967 292.656 482.267 296.106 482.267 296.106C482.267 296.106 482.567 307.803 484.067 307.954C485.567 308.103 495.315 308.103 495.315 308.103L494.414 325.2L516.76 312.303L517.211 297.306C517.211 297.306 523.21 289.656 523.21 285.758C523.21 281.858 522.61 281.108 522.61 281.108L485.266 274.659Z" stroke="#1A2E35" stroke-width="1.33333" stroke-miterlimit="10" stroke-linecap="round" stroke-linejoin="round"/>
<path d="M522.609 281.108L498.729 276.984L498.915 278.708L498.015 286.958C498.015 286.958 504.312 282.608 505.513 282.008C506.712 281.408 509.112 285.608 507.763 288.158C506.413 290.707 501.913 294.156 501.913 294.156C501.913 294.156 506.861 299.255 511.963 299.555C514.049 299.678 515.804 299.447 517.156 299.134L517.211 297.306C517.211 297.306 523.209 289.656 523.209 285.758C523.209 281.858 522.609 281.108 522.609 281.108Z" fill="#1A2E35"/>
<path d="M522.609 281.108L498.729 276.984L498.915 278.708L498.015 286.958C498.015 286.958 504.312 282.608 505.513 282.008C506.712 281.408 509.112 285.608 507.763 288.158C506.413 290.707 501.913 294.156 501.913 294.156C501.913 294.156 506.861 299.255 511.963 299.555C514.049 299.678 515.804 299.447 517.156 299.134L517.211 297.306C517.211 297.306 523.209 289.656 523.209 285.758C523.209 281.858 522.609 281.108 522.609 281.108Z" stroke="#1A2E35" stroke-width="1.33333" stroke-miterlimit="10" stroke-linecap="round" stroke-linejoin="round"/>
<path d="M484.966 280.508C484.966 280.508 487.066 279.008 489.465 281.257" stroke="#1A2E35" stroke-width="1.33333" stroke-miterlimit="10"/>
<path d="M487.216 284.557C487.216 285.552 486.88 286.357 486.467 286.357C486.052 286.357 485.716 285.552 485.716 284.557C485.716 283.563 486.052 282.757 486.467 282.757C486.88 282.757 487.216 283.563 487.216 284.557Z" fill="#1A2E35"/>
<path d="M491.115 307.803L500.264 306.754L495.315 312.603V308.103L491.115 307.803Z" fill="#1A2E35"/>
<path d="M491.115 307.803L500.264 306.754L495.315 312.603V308.103L491.115 307.803Z" stroke="#1A2E35" stroke-width="1.33333" stroke-miterlimit="10"/>
<path d="M508.812 283.357L517.156 299.133L521.111 295.356L513.612 282.908L508.812 283.357Z" fill="white"/>
<path d="M508.812 283.357L517.156 299.133L521.111 295.356L513.612 282.908L508.812 283.357Z" stroke="#1A2E35" stroke-width="1.33333" stroke-miterlimit="10" stroke-linecap="round" stroke-linejoin="round"/>
<path d="M482.324 271.063C482.324 271.063 471.748 272.45 473.059 272.886C474.368 273.323 528.943 290.131 528.943 290.131C528.943 290.131 527.851 286.202 527.851 284.892C527.851 283.583 530.034 275.068 529.16 266.338C528.288 257.606 509.83 252.727 500.66 251.854C491.492 250.979 486.908 255.346 486.035 260.148C485.162 264.951 482.324 271.063 482.324 271.063Z" fill="#FF5A3C"/>
<path d="M482.324 271.063C482.324 271.063 471.748 272.45 473.059 272.886C474.368 273.323 528.943 290.131 528.943 290.131C528.943 290.131 527.851 286.202 527.851 284.892C527.851 283.583 530.034 275.068 529.16 266.338C528.288 257.606 509.83 252.727 500.66 251.854C491.492 250.979 486.908 255.346 486.035 260.148C485.162 264.951 482.324 271.063 482.324 271.063Z" stroke="#1A2E35" stroke-width="1.33333" stroke-miterlimit="10" stroke-linecap="round" stroke-linejoin="round"/>
<path d="M497.473 275.637L487.833 272.167C487.833 272.167 493.425 259.441 493.231 257.899C493.038 256.356 493.038 255.005 493.038 255.005C493.038 255.005 493.231 252.499 501.715 253.464" stroke="#1A2E35" stroke-width="1.33333" stroke-miterlimit="10" stroke-linecap="round" stroke-linejoin="round"/>
<path d="M238.189 84.9115V92.6288L235.103 98.0302C235.103 101.622 238.015 104.534 241.607 104.534C245.199 104.534 248.111 101.622 248.111 98.0302V92.6288" stroke="#1A2E35" stroke-width="4" stroke-miterlimit="10" stroke-linecap="round" stroke-linejoin="round"/>
<path d="M231.489 84.54H244.497V70.0867H231.489V84.54Z" fill="white" stroke="#1A2E35" stroke-width="1.33333" stroke-miterlimit="10" stroke-linecap="round" stroke-linejoin="round"/>
<path d="M226.672 79.7227H249.316V50.6947H226.672V79.7227Z" fill="white" stroke="#1A2E35" stroke-width="1.33333" stroke-miterlimit="10" stroke-linecap="round" stroke-linejoin="round"/>
<path d="M255.82 74.1812H219.927V65.2678H255.82V74.1812Z" fill="white" stroke="#1A2E35" stroke-width="1.33333" stroke-miterlimit="10" stroke-linecap="round" stroke-linejoin="round"/>
<path d="M237.99 65.2683H243.129L250.397 73.5096L249.634 74.1816H245.852L237.99 65.2683Z" fill="#1A2E35"/>
<path d="M253.006 65.2683L255.821 68.459V74.1816H255.729L247.867 65.2683H253.006Z" fill="#1A2E35"/>
<path d="M228.113 65.2683H233.252L240.521 73.5096L239.757 74.1816H235.975L228.113 65.2683Z" fill="#1A2E35"/>
<path d="M219.926 67.1843V65.2683H223.376L230.644 73.5096L229.881 74.1816H226.097L219.926 67.1843Z" fill="#1A2E35"/>
<path d="M238.508 50.1895V32.7255Z" fill="white"/>
<path d="M238.508 50.1895V32.7255" stroke="#1A2E35" stroke-width="2.66667" stroke-miterlimit="10" stroke-linecap="round" stroke-linejoin="round"/>
<path d="M1.9648 32.2778H247.573V21.8178L200.099 1.7005H1.9648" stroke="#1A2E35" stroke-width="2.66667" stroke-miterlimit="10" stroke-linecap="round" stroke-linejoin="round"/>
<path d="M200.099 32.2778V1.7005L168.718 32.2778V1.7005L200.099 32.2778Z" stroke="#1A2E35" stroke-width="2.66667" stroke-miterlimit="10" stroke-linecap="round" stroke-linejoin="round"/>
<path d="M168.759 32.2778V1.7005L137.378 32.2778V1.7005L168.759 32.2778Z" stroke="#1A2E35" stroke-width="2.66667" stroke-miterlimit="10" stroke-linecap="round" stroke-linejoin="round"/>
<path d="M137.419 32.2778V1.7005L106.037 32.2778V1.7005L137.419 32.2778Z" stroke="#1A2E35" stroke-width="2.66667" stroke-miterlimit="10" stroke-linecap="round" stroke-linejoin="round"/>
<path d="M106.078 32.2778V1.7005L74.6968 32.2778V1.7005L106.078 32.2778Z" stroke="#1A2E35" stroke-width="2.66667" stroke-miterlimit="10" stroke-linecap="round" stroke-linejoin="round"/>
<path d="M74.7383 32.2778V1.7005L43.3569 32.2778V1.7005L74.7383 32.2778Z" stroke="#1A2E35" stroke-width="2.66667" stroke-miterlimit="10" stroke-linecap="round" stroke-linejoin="round"/>
<path d="M43.3977 32.2778V1.7005L12.0164 32.2778V1.7005L43.3977 32.2778Z" stroke="#1A2E35" stroke-width="2.66667" stroke-miterlimit="10" stroke-linecap="round" stroke-linejoin="round"/>
</svg>
